# xmcd
#
# Track frame offsets:
#	150
#	10924
#	22915
#	32970
#	47316
#	64399
#	78676
#	93755
#	106567
#	121119
#	130670
#	140239
#	157015
#	175259
#	187754
#	200834
#	215498
#
# Disc length: 3056 seconds
#
# Revision: 0
# Processed by: cddbd v1.4PL0 Copyright (c) Steve Scherf et al.
# Submitted via: dBpowerAMP V4.0
#
DISCID=e10bee11
DTITLE=Various Artist - Classic Country Hits CD 3
DYEAR=1900
DGENRE=Country
TTITLE0=Barbara Mandrell - Sleeping Single In A Double Bed
TTITLE1=Johnny Paycheck - Take This Job And Shove It
TTITLE2=Moe Bandy - The All American Dream
TTITLE3=Don Williams - Tulsa Time
TTITLE4=Johnny Cash - (Ghost) Riders In The Sky
TTITLE5=Merle Haggard and The Strangers - Always Wanting You
TTITLE6=Merle Haggard - Amber Waves Of Grain
TTITLE7=Lynn Anderson - How Can I Unlove You
TTITLE8=Barbara Mandrell - David Houston - I Love You, I Love You
TTITLE9=Webb Pierce - In The Jailhouse Now
TTITLE10=Bob Luman - Let's Think About Living
TTITLE11=David Allan Coe - Mona Lisa Lost Her Smile
TTITLE12=Montgomery Gentry - Tattoos And Scars
TTITLE13=Freddy Fender - Wasted Days And Wasted Nights
TTITLE14=Johnny Paycheck - All American Man
TTITLE15=Eddie Rabbitt - Always Loving You
TTITLE16=George Jones and Tammy Wynette - Golden Ring
EXTD=
EXTT0=
EXTT1=
EXTT2=
EXTT3=
EXTT4=
EXTT5=
EXTT6=
EXTT7=
EXTT8=
EXTT9=
EXTT10=
EXTT11=
EXTT12=
EXTT13=
EXTT14=
EXTT15=
EXTT16=
PLAYORDER=
